<svg width="379" height="155" viewBox="0 0 379 155" fill="none" xmlns="http://www.w3.org/2000/svg">
<path d="M30 51C30 57.6274 24.6274 63 18 63L12 63C5.37258 63 -1.32024e-06 57.6274 -5.96007e-07 51L5.96641e-08 45C7.83898e-07 38.3726 5.37258 33 12 33L18 33C24.6274 33 30 38.3726 30 45L30 51Z" fill="#44B78B"/>
<path d="M30 98C30 104.627 24.6274 110 18 110L12 110C5.37258 110 -1.32024e-06 104.627 -5.96007e-07 98L5.96641e-08 92C7.83898e-07 85.3726 5.37258 80 12 80L18 80C24.6274 80 30 85.3726 30 92L30 98Z" fill="#44B78B"/>
<path d="M40.5625 119V28H66.25C74.1667 28 81.1667 29.75 87.25 33.25C93.3333 36.75 98.0208 41.7292 101.312 48.1875C104.646 54.6458 106.333 62.0625 106.375 70.4375V76.25C106.375 84.8333 104.708 92.3542 101.375 98.8125C98.0833 105.271 93.3542 110.229 87.1875 113.688C81.0625 117.146 73.9167 118.917 65.75 119H40.5625ZM52.5625 37.875V109.188H65.1875C74.4375 109.188 81.625 106.312 86.75 100.562C91.9167 94.8125 94.5 86.625 94.5 76V70.6875C94.5 60.3542 92.0625 52.3333 87.1875 46.625C82.3542 40.875 75.4792 37.9583 66.5625 37.875H52.5625Z" fill="#44B78B"/>
<path d="M138.438 35V51.375H151.062V60.3125H138.438V102.25C138.438 104.958 139 107 140.125 108.375C141.25 109.708 143.167 110.375 145.875 110.375C147.208 110.375 149.042 110.125 151.375 109.625V119C148.333 119.833 145.375 120.25 142.5 120.25C137.333 120.25 133.438 118.688 130.812 115.562C128.188 112.438 126.875 108 126.875 102.25V60.3125H114.562V51.375H126.875V35H138.438ZM206.375 112.312C201.875 117.604 195.271 120.25 186.562 120.25C179.354 120.25 173.854 118.167 170.062 114C166.312 109.792 164.417 103.583 164.375 95.375V51.375H175.938V95.0625C175.938 105.312 180.104 110.438 188.438 110.438C197.271 110.438 203.146 107.146 206.062 100.562V51.375H217.625V119H206.625L206.375 112.312ZM292.5 85.9375C292.5 96.2708 290.125 104.583 285.375 110.875C280.625 117.125 274.25 120.25 266.25 120.25C257.708 120.25 251.104 117.229 246.438 111.188L245.875 119H235.25V23H246.812V58.8125C251.479 53.0208 257.917 50.125 266.125 50.125C274.333 50.125 280.771 53.2292 285.438 59.4375C290.146 65.6458 292.5 74.1458 292.5 84.9375V85.9375ZM280.938 84.625C280.938 76.75 279.417 70.6667 276.375 66.375C273.333 62.0833 268.958 59.9375 263.25 59.9375C255.625 59.9375 250.146 63.4792 246.812 70.5625V99.8125C250.354 106.896 255.875 110.438 263.375 110.438C268.917 110.438 273.229 108.292 276.312 104C279.396 99.7083 280.938 93.25 280.938 84.625ZM335.188 120.25C326.021 120.25 318.562 117.25 312.812 111.25C307.062 105.208 304.188 97.1458 304.188 87.0625V84.9375C304.188 78.2292 305.458 72.25 308 67C310.583 61.7083 314.167 57.5833 318.75 54.625C323.375 51.625 328.375 50.125 333.75 50.125C342.542 50.125 349.375 53.0208 354.25 58.8125C359.125 64.6042 361.562 72.8958 361.562 83.6875V88.5H315.75C315.917 95.1667 317.854 100.562 321.562 104.688C325.312 108.771 330.062 110.812 335.812 110.812C339.896 110.812 343.354 109.979 346.188 108.312C349.021 106.646 351.5 104.438 353.625 101.688L360.688 107.188C355.021 115.896 346.521 120.25 335.188 120.25ZM333.75 59.625C329.083 59.625 325.167 61.3333 322 64.75C318.833 68.125 316.875 72.875 316.125 79H350V78.125C349.667 72.25 348.083 67.7083 345.25 64.5C342.417 61.25 338.583 59.625 333.75 59.625Z" fill="#EF5757"/>
<path d="M8 48.5L19.25 42.0048L19.25 54.9952L8 48.5Z" fill="white"/>
<path d="M8 95.5L19.25 89.0048L19.25 101.995L8 95.5Z" fill="white"/>
</svg>
